#define close_width 16
#define close_height 16
static unsigned char close_bits[] = {
   0x00, 0x00, 0x00, 0x00, 0x00, 0x00, 0x38, 0x1c, 0x78, 0x1e, 0xf8, 0x1f,
   0xf0, 0x0f, 0xe0, 0x07, 0xe0, 0x07, 0xf0, 0x0f, 0xf8, 0x1f, 0x78, 0x1e,
   0x38, 0x1c, 0x00, 0x00, 0x00, 0x00, 0x00, 0x00 };
