#define desk_width 16
#define desk_height 16
static unsigned char desk_bits[] = {
   0x00, 0x00, 0x00, 0x00, 0x1c, 0x38, 0x1c, 0x38, 0x1c, 0x38, 0x00, 0x00,
   0x00, 0x00, 0x00, 0x00, 0x00, 0x00, 0x00, 0x00, 0x00, 0x00, 0x1c, 0x38,
   0x1c, 0x38, 0x1c, 0x38, 0x00, 0x00, 0x00, 0x00 };
