#define max_width 16
#define max_height 16
static unsigned char max_bits[] = {
   0x00, 0x00, 0x00, 0x00, 0x00, 0x00, 0xe0, 0x1f, 0xc0, 0x1f, 0x88, 0x1f,
   0x18, 0x1f, 0x38, 0x1e, 0x78, 0x1c, 0xf8, 0x18, 0xf8, 0x11, 0xf8, 0x03,
   0xf8, 0x07, 0x00, 0x00, 0x00, 0x00, 0x00, 0x00 };
