#define max_toggled_width 16
#define max_toggled_height 16
static unsigned char max_toggled_bits[] = {
   0x00, 0x00, 0x00, 0x00, 0x00, 0x03, 0x00, 0x07, 0x00, 0x0f, 0x00, 0x1f,
   0x00, 0x3f, 0x00, 0x3f, 0xfc, 0x00, 0xfc, 0x00, 0xf8, 0x00, 0xf0, 0x00,
   0xe0, 0x00, 0xc0, 0x00, 0x00, 0x00, 0x00, 0x00 };
